<svg xmlns="http://www.w3.org/2000/svg" width="37" height="45.531" viewBox="0 0 37 45.531">
  <metadata><?xpacket begin="﻿" id="W5M0MpCehiHzreSzNTczkc9d"?>
    <x:xmpmeta xmlns:x="adobe:ns:meta/" x:xmptk="Adobe XMP Core 5.6-c142 79.160924, 2017/07/13-01:06:39        ">
      <rdf:RDF xmlns:rdf="http://www.w3.org/1999/02/22-rdf-syntax-ns#">
        <rdf:Description rdf:about=""/>
      </rdf:RDF>
    </x:xmpmeta>


    <?xpacket end="w"?>
  </metadata>
  <defs>
    <style>
      .cls-1 {
      fill: #bbcad2;
      fill-rule: evenodd;
      }
    </style>
  </defs>
  <path id="icon" class="cls-1"
        d="M159.2,239.267c-1.366-2.666-1.123-4.573.735-6.032a4.19,4.19,0,0,1,5.363.187,4.246,4.246,0,0,1,.483,5.828c0.43,0.133.851,0.245,1.258,0.394,2.815,1.032,4.452,3.188,5.55,5.832a41.011,41.011,0,0,1,1.885,6.743c0.507,2.236.836,4.513,1.516,6.709a10.949,10.949,0,0,0,5.01,6.131v5.027H144v-5.027c2.744-.938,4.024-3.162,4.9-5.657a43.174,43.174,0,0,0,1.245-6.049,38.549,38.549,0,0,1,2.094-7.932A9.627,9.627,0,0,1,159.2,239.267Zm0.761,3.349a4.742,4.742,0,0,0-2.627,1.207,9.958,9.958,0,0,0-2.707,4.97,73.649,73.649,0,0,0-1.675,8.105,18.652,18.652,0,0,1-2.789,7.594,9.271,9.271,0,0,1-2.139,2.262h4.906a14.509,14.509,0,0,0,2.548-5.78,74.128,74.128,0,0,0,1.208-8.508,32.157,32.157,0,0,1,1.232-6.757A5.792,5.792,0,0,1,159.959,242.616Zm1.709-6.13a0.871,0.871,0,0,0,.845.919,0.809,0.809,0,0,0,.8-0.824,0.785,0.785,0,0,0-.839-0.829A0.775,0.775,0,0,0,161.668,236.486Zm-4.435,36.182h10.5c0.274,2.578-2.185,5.114-5.021,5.22A5.219,5.219,0,0,1,157.233,272.668Z"
        transform="translate(-144 -232.344)"/>
</svg>
