<svg id="Слой_1" data-name="Слой 1" xmlns="http://www.w3.org/2000/svg" viewBox="0 0 32 32">
  <defs>
    <style>.cls-1{fill:#fff;}</style>
  </defs>
  <title>alert</title>
  <path class="cls-1"
        d="M14.09,6.8c-.79-1.55-.65-2.65.42-3.5a2.41,2.41,0,0,1,3.1.11,2.47,2.47,0,0,1,.28,3.38c.25.08.49.14.73.23a5.57,5.57,0,0,1,3.21,3.39,23.87,23.87,0,0,1,1.09,3.91c.29,1.3.48,2.62.88,3.89a6.35,6.35,0,0,0,2.9,3.56v2.92H5.31V21.77a4.71,4.71,0,0,0,2.83-3.28A25.21,25.21,0,0,0,8.86,15a22.51,22.51,0,0,1,1.21-4.6A5.57,5.57,0,0,1,14.09,6.8Zm.44,1.94a2.74,2.74,0,0,0-1.52.7,5.79,5.79,0,0,0-1.56,2.88,43,43,0,0,0-1,4.7,10.87,10.87,0,0,1-1.61,4.41,5.37,5.37,0,0,1-1.24,1.31h2.84a8.44,8.44,0,0,0,1.47-3.35,43.21,43.21,0,0,0,.7-4.94,18.71,18.71,0,0,1,.71-3.92A3.36,3.36,0,0,1,14.53,8.74Zm1-3.56a.5.5,0,0,0,.49.53.47.47,0,0,0,.46-.48A.45.45,0,0,0,16,4.76.45.45,0,0,0,15.52,5.18Z"/>
  <path class="cls-1" d="M13,26.18H19a3,3,0,0,1-2.9,3A3,3,0,0,1,13,26.18Z"/>
</svg>
