<svg id="Слой_1" data-name="Слой 1" xmlns="http://www.w3.org/2000/svg" viewBox="0 0 32 32">
  <defs>
    <style>.cls-1{fill:#fff;}</style>
  </defs>
  <title>analytics</title>
  <path class="cls-1"
        d="M27.22,16q0,4.61,0,9.22c0,1.74-.46,2.36-1.72,2.37H23.34c-1.29,0-1.77-.66-1.77-2.44q0-8.46,0-16.92c0-.65,0-1.3,0-2C21.64,5,22.07,4.44,23,4.41s1.76,0,2.64,0c1.18,0,1.58.56,1.59,2.15Q27.23,11.27,27.22,16Z"/>
  <path class="cls-1"
        d="M13.2,18.42c0-2.35,0-4.69,0-7,0-1.49.33-1.92,1.43-1.94.93,0,1.86,0,2.79,0s1.37.45,1.38,1.9c0,2.06,0,4.12,0,6.18q0,3.9,0,7.8c0,1.82-.34,2.27-1.71,2.27-.8,0-1.6,0-2.39,0-1.11,0-1.49-.54-1.5-2C13.2,23.18,13.2,20.8,13.2,18.42Z"/>
  <path class="cls-1"
        d="M10.43,21.08c0,1.62,0,3.25,0,4.87,0,1.09-.35,1.6-1.16,1.63q-1.67.06-3.35,0c-.77,0-1.12-.5-1.13-1.56q0-5,0-10c0-1,.32-1.43,1.08-1.45,1.17,0,2.34,0,3.51,0,.75,0,1,.45,1,1.49C10.44,17.76,10.43,19.42,10.43,21.08Z"/>
</svg>
