<svg id="Слой_1" data-name="Слой 1" xmlns="http://www.w3.org/2000/svg" viewBox="0 0 32 32">
  <defs>
    <style>.cls-1{fill:#fff;}</style>
  </defs>
  <title>area</title>
  <path class="cls-1"
        d="M4.75,7.79C3.18,7,2.6,6,2.86,4.64a2.57,2.57,0,0,1,2.26-2c1.31-.15,2.2.5,2.91,2.14h16c.76-1.56,1.77-2.21,3-2a2.63,2.63,0,0,1,2.16,2.33c.1,1.41-.6,2.32-2.22,2.87v16.3a2.73,2.73,0,0,1,1.71,1.29A2.69,2.69,0,0,1,29,27.28a2.57,2.57,0,0,1-2.25,2.1c-1.28.16-2.24-.51-2.91-2H8c-.74,1.62-1.65,2.22-3,2a2.58,2.58,0,0,1-2.18-2.24c-.16-1.26.49-2.2,2-2.85Zm5.1,17.79L25.35,9.79V7.59l-.15-.1-17.63,18,.09.12ZM6.5,24.25,23.91,6.52H21.57L6.5,21.86ZM25.38,12,12.08,25.59h2.34l11-11.2ZM17.22,6.51,6.52,17.41v2.17L19.34,6.51ZM6.52,12.59v2.57L15,6.5H12.94ZM25.36,16.7l-8.74,8.89h2.12l6.63-6.76ZM23.1,25.59l2.26-2V21.43L21,25.59ZM6.5,10.11l3.76-3.61H7.67A3,3,0,0,1,6.5,7.57Z"/>
</svg>
