<svg xmlns="http://www.w3.org/2000/svg" width="46" height="47" viewBox="0 0 46 47">
  <metadata><?xpacket begin="﻿" id="W5M0MpCehiHzreSzNTczkc9d"?>
    <x:xmpmeta xmlns:x="adobe:ns:meta/" x:xmptk="Adobe XMP Core 5.6-c142 79.160924, 2017/07/13-01:06:39        ">
      <rdf:RDF xmlns:rdf="http://www.w3.org/1999/02/22-rdf-syntax-ns#">
        <rdf:Description rdf:about=""/>
      </rdf:RDF>
    </x:xmpmeta>


    <?xpacket end="w"?>
  </metadata>
  <defs>
    <style>
      .cls-1 {
      fill: #bbcad2;
      fill-rule: evenodd;
      }
    </style>
  </defs>
  <path id="icon" class="cls-1"
        d="M142.5,241.114c-2.735-1.409-3.735-3.106-3.28-5.521a4.482,4.482,0,0,1,3.927-3.55c2.267-.263,3.817.883,5.058,3.749h27.848c1.324-2.732,3.068-3.882,5.21-3.462a4.59,4.59,0,0,1,3.754,4.079c0.167,2.465-1.04,4.058-3.855,5.03v28.569a4.579,4.579,0,0,1,3.453,5.264,4.483,4.483,0,0,1-3.9,3.689c-2.225.279-3.89-.889-5.045-3.572H148.1c-1.291,2.841-2.866,3.889-5.281,3.53a4.493,4.493,0,0,1-3.781-3.933c-0.283-2.2.851-3.853,3.452-5V241.114Zm8.849,31.175,26.893-27.678v-3.856l-0.257-.171q-15.3,15.747-30.6,31.493l0.15,0.212h3.81Zm-5.824-2.317,30.226-31.092h-4.058q-13.08,13.442-26.168,26.891v4.2Zm32.767-21.479L155.219,272.31h4.053l19.015-19.623v-4.194Zm-14.16-9.63L145.57,257.97v3.807l22.246-22.914h-3.689ZM145.562,249.53v4.508l14.756-15.18h-3.607Zm32.7,7.2-15.171,15.58h3.672l11.5-11.85v-3.73Zm-3.936,15.581,3.93-3.456V265.03l-7.6,7.285h3.67Zm-28.8-27.13,6.532-6.323h-4.5a5.3,5.3,0,0,1-2.029,1.869v4.454Z"
        transform="translate(-139 -232)"/>
</svg>
