<svg xmlns="http://www.w3.org/2000/svg" width="42" height="42" viewBox="0 0 42 42">
  <metadata><?xpacket begin="﻿" id="W5M0MpCehiHzreSzNTczkc9d"?>
    <x:xmpmeta xmlns:x="adobe:ns:meta/" x:xmptk="Adobe XMP Core 5.6-c142 79.160924, 2017/07/13-01:06:39        ">
      <rdf:RDF xmlns:rdf="http://www.w3.org/1999/02/22-rdf-syntax-ns#">
        <rdf:Description rdf:about=""/>
      </rdf:RDF>
    </x:xmpmeta>


    <?xpacket end="w"?>
  </metadata>
  <defs>
    <style>
      .cls-1 {
      fill: #309683;
      fill-rule: evenodd;
      }
    </style>
  </defs>
  <path id="Export_to_Exscel" data-name="Export to Exscel" class="cls-1"
        d="M1197.05,393l-24.06-4.584V355.588l24.06-4.6V393Zm-4.54-12.865c-1.72-2.833-3.36-5.523-4.98-8.186,1.63-2.7,3.19-5.3,4.84-8.038h-4.09c-1.03,1.981-2.06,3.941-3.1,5.925q-1.47-3.087-2.84-5.93h-4.42c1.6,2.782,3.13,5.451,4.68,8.152-1.7,2.675-3.37,5.3-5.14,8.081h4.4c1.04-1.956,2.08-3.917,3.16-5.962q1.635,3.072,3.17,5.958h4.32Zm6.3,7.9v-4.645h4.72a15.611,15.611,0,0,0,.07-3.286h-4.79V376.86h4.77v-3.187h-4.74v-3.288h4.73v-3.237h-4.76v-3.23h4.8V360.6h-4.81V356a1.531,1.531,0,0,1,1.03-.168q6.57-.009,13.14,0c1.61,0,2.02.409,2.02,1.977q0.015,14.166,0,28.332c0,1.619-.44,2.047-2.08,2.048q-6.51.006-13.03,0A1.7,1.7,0,0,1,1198.81,388.029Zm6.49-24.183h6.41V360.7h-6.41v3.148Zm-0.01,6.418h6.41v-3.049h-6.41v3.049Zm0,6.492h6.41v-3.041h-6.41v3.041Zm6.43,3.392h-6.39v3.114h6.39v-3.114Z"
        transform="translate(-1173 -351)"/>
</svg>
