<svg xmlns="http://www.w3.org/2000/svg" width="20.78" height="20.594" viewBox="0 0 20.78 20.594">
  <metadata><?xpacket begin="﻿" id="W5M0MpCehiHzreSzNTczkc9d"?>
    <x:xmpmeta xmlns:x="adobe:ns:meta/" x:xmptk="Adobe XMP Core 5.6-c142 79.160924, 2017/07/13-01:06:39        ">
      <rdf:RDF xmlns:rdf="http://www.w3.org/1999/02/22-rdf-syntax-ns#">
        <rdf:Description rdf:about=""/>
      </rdf:RDF>
    </x:xmpmeta>


    <?xpacket end="w"?>
  </metadata>
  <defs>
    <style>
      .cls-1 {
      fill: #2e4a57;
      fill-rule: evenodd;
      }
    </style>
  </defs>
  <path id="ordinary_icon" data-name="ordinary icon" class="cls-1"
        d="M1059.87,445.2h2.77c0,2.688-2.56,6.858-6.81,8.224a10.47,10.47,0,0,1-12.43-4.834,10.259,10.259,0,0,1,2.61-12.974,10.576,10.576,0,0,1,14.65,1.523c0.66-.737,1.31-1.469,2-2.248a37.249,37.249,0,0,1,.16,7.2h-7.23l2.89-2.668a7.265,7.265,0,0,0-7.09-3.078,7.423,7.423,0,0,0-6.28,6.557,7.458,7.458,0,0,0,10.94,7.255A7.6,7.6,0,0,0,1059.87,445.2Zm-11.76-.168v-2.841l2.95-.007s-0.01-1.934-.01-2.907h2.86v5.755h-5.8Z"
        transform="translate(-1042.13 -433.344)"/>
</svg>
