<svg xmlns="http://www.w3.org/2000/svg" width="20.66" height="20.313" viewBox="0 0 20.66 20.313">
  <metadata><?xpacket begin="﻿" id="W5M0MpCehiHzreSzNTczkc9d"?>
    <x:xmpmeta xmlns:x="adobe:ns:meta/" x:xmptk="Adobe XMP Core 5.6-c142 79.160924, 2017/07/13-01:06:39        ">
      <rdf:RDF xmlns:rdf="http://www.w3.org/1999/02/22-rdf-syntax-ns#">
        <rdf:Description rdf:about=""/>
      </rdf:RDF>
    </x:xmpmeta>


    <?xpacket end="w"?>
  </metadata>
  <defs>
    <style>
      .cls-1 {
      fill: #cc436a;
      fill-rule: evenodd;
      }
    </style>
  </defs>
  <path id="uncompleted_icon" data-name="uncompleted icon" class="cls-1"
        d="M1182.51,596.97a15.9,15.9,0,0,1-3.35-.864,10.074,10.074,0,0,1-6.17-9.322,9.719,9.719,0,0,1,6.17-9.238,10.288,10.288,0,0,1,14.2,6.919,10.1,10.1,0,0,1-8.85,12.4,2.3,2.3,0,0,0-.4.1h-1.6Zm0.77-2.523a7.646,7.646,0,1,0,.1-15.289c-4.59-.019-7.85,3.139-7.85,7.623A7.412,7.412,0,0,0,1183.28,594.447Zm3.53-9.191,0.03,3.087h-7.02l-0.01-3.087h7Z"
        transform="translate(-1173 -576.656)"/>
</svg>
