<svg xmlns="http://www.w3.org/2000/svg" width="40" height="40" viewBox="0 0 40 40">
  <metadata><?xpacket begin="﻿" id="W5M0MpCehiHzreSzNTczkc9d"?>
    <x:xmpmeta xmlns:x="adobe:ns:meta/" x:xmptk="Adobe XMP Core 5.6-c142 79.160924, 2017/07/13-01:06:39        ">
      <rdf:RDF xmlns:rdf="http://www.w3.org/1999/02/22-rdf-syntax-ns#">
        <rdf:Description rdf:about=""/>
      </rdf:RDF>
    </x:xmpmeta>


    <?xpacket end="w"?>
  </metadata>
  <defs>
    <style>
      .cls-1 {
      fill: #bbcad2;
      fill-rule: evenodd;
      }
    </style>
  </defs>
  <path id="icon" class="cls-1"
        d="M159.954,273.987q-8.007,0-16.012,0a4.019,4.019,0,0,1-3.962-3.954q-0.009-16.038,0-32.078a4.043,4.043,0,0,1,3.962-3.967q16.04,0,32.079,0a4.018,4.018,0,0,1,3.959,3.957q0.011,16.04,0,32.078a4.036,4.036,0,0,1-4.016,3.966q-8.006,0-16.011,0v0Zm-4-24.007h19.988v-4.015H155.955V238.02h-3.971V246h-7.972v3.989H152v19.954h3.95V249.98Z"
        transform="translate(-139.969 -234)"/>
</svg>
