<svg xmlns="http://www.w3.org/2000/svg" width="37.031" height="27" viewBox="0 0 37.031 27">
  <metadata><?xpacket begin="﻿" id="W5M0MpCehiHzreSzNTczkc9d"?>
    <x:xmpmeta xmlns:x="adobe:ns:meta/" x:xmptk="Adobe XMP Core 5.6-c142 79.160924, 2017/07/13-01:06:39        ">
      <rdf:RDF xmlns:rdf="http://www.w3.org/1999/02/22-rdf-syntax-ns#">
        <rdf:Description rdf:about=""/>
      </rdf:RDF>
    </x:xmpmeta>


    <?xpacket end="w"?>
  </metadata>
  <defs>
    <style>
      .cls-1 {
      fill: #2e4a57;
      fill-rule: evenodd;
      }
    </style>
  </defs>
  <path id="icon" class="cls-1"
        d="M176.148,363.289v-5.3H181.4v5.3h-5.252Zm5.236,21.67H176.16v-5.37h5.224v5.37ZM170.813,357.99V363.3h-5.2V357.99h5.2Zm21.163,5.307h-5.149v-5.319h5.149V363.3ZM181.39,374.079h-5.235v-5.214h5.235v5.214Zm-21.251,5.535v5.325h-5.168v-5.325h5.168Zm10.662,5.338h-5.184v-5.364H170.8v5.364ZM155,368.817h5.113v5.251H155v-5.251Zm15.81,0.017v5.24h-5.2v-5.24h5.2Zm16.048-.008h5.125v5.214h-5.125v-5.214Z"
        transform="translate(-154.969 -357.969)"/>
</svg>
