<svg id="Слой_1" data-name="Слой 1" xmlns="http://www.w3.org/2000/svg" viewBox="0 0 32 32">
  <defs>
    <style>.cls-1{fill:#fff;}</style>
  </defs>
  <title>line</title>
  <path class="cls-1"
        d="M16.45,2c.1.15.29.14.43.2a2.1,2.1,0,0,1,.49,3.48L17,6v2.1c1.35.32,1.73.68,1.73,1.69,0,.43,0,.87,0,1.3s0,1,0,1.48l3.15,1.7-1,5.81L19,19.78l.77-4.47-3.77-2-3.78,2L13,19.77l-1.85.33-1-5.81,3.17-1.71c0-.87,0-1.74,0-2.61,0-1.22.43-1.7,1.7-1.81V6a2.12,2.12,0,0,1-1.08-1.72A2.17,2.17,0,0,1,15.58,2Z"/>
  <path class="cls-1"
        d="M5.71,22.54V18.78H9.66v3.72H14V18.78H18V22.5H22.3V18.79h4v3.68c.56.14,1.09,0,1.6.12A3.71,3.71,0,0,1,27.44,30c-.32,0-.65,0-1,0H4.89a3.72,3.72,0,1,1-.24-7.44ZM16,28.62h6.24c1.7,0,3.4,0,5.1,0a2.27,2.27,0,0,0,2.12-1.35,2.19,2.19,0,0,0-.23-2.4,2.48,2.48,0,0,0-2.18-1H9c-1.41,0-2.82,0-4.23,0A2.29,2.29,0,0,0,2.61,25.2a2.22,2.22,0,0,0,.21,2.45,2.34,2.34,0,0,0,2,1Z"/>
  <path class="cls-1" d="M27.65,26.36a1.08,1.08,0,1,1-2.17,0,1.08,1.08,0,1,1,2.17,0Z"/>
  <path class="cls-1" d="M16.1,25.35a1,1,0,0,1,1,1A1.13,1.13,0,0,1,16,27.44a1.11,1.11,0,0,1-1.09-1.11C14.92,25.7,15.34,25.36,16.1,25.35Z"/>
  <path class="cls-1" d="M5.44,27.45a1.11,1.11,0,0,1-1.08-1.12,1.09,1.09,0,0,1,1.08-1.06,1.08,1.08,0,0,1,1.08,1.06A1.11,1.11,0,0,1,5.44,27.45Z"/>
  <path class="cls-1" d="M11.56,25.64c.33.74.25,1.26-.21,1.59A1,1,0,0,1,10,27.17a1.09,1.09,0,0,1-.22-1.38c.22-.34.62-.34.94-.5S11.18,25.76,11.56,25.64Z"/>
  <path class="cls-1" d="M22.35,26.37a1.07,1.07,0,1,1-2.14-.05,1,1,0,0,1,1-1C21.94,25.31,22.36,25.7,22.35,26.37Z"/>
</svg>
