<svg xmlns="http://www.w3.org/2000/svg" width="52" height="48" viewBox="0 0 52 48">
  <metadata><?xpacket begin="﻿" id="W5M0MpCehiHzreSzNTczkc9d"?>
    <x:xmpmeta xmlns:x="adobe:ns:meta/" x:xmptk="Adobe XMP Core 5.6-c142 79.160924, 2017/07/13-01:06:39        ">
      <rdf:RDF xmlns:rdf="http://www.w3.org/1999/02/22-rdf-syntax-ns#">
        <rdf:Description rdf:about=""/>
      </rdf:RDF>
    </x:xmpmeta>


    <?xpacket end="w"?>
  </metadata>
  <defs>
    <style>
      .cls-1 {
      fill: #bbcad2;
      fill-rule: evenodd;
      }
    </style>
  </defs>
  <path id="icon" class="cls-1"
        d="M160.8,232.008a1.5,1.5,0,0,0,.743.35,3.578,3.578,0,0,1,.848,5.976c-0.21.181-.438,0.343-0.668,0.523v3.6c2.35,0.544,3,1.175,3,2.9,0,0.744,0,1.488,0,2.232v2.541l5.468,2.915c-0.578,3.3-1.152,6.585-1.743,9.963l-3.218-.535c0.449-2.578.883-5.071,1.338-7.676l-6.547-3.469-6.55,3.459c0.439,2.529.876,5.052,1.332,7.675l-3.212.562c-0.584-3.322-1.16-6.6-1.751-9.972l5.5-2.936c0-1.5,0-2.984,0-4.469-0.005-2.095.75-2.912,2.953-3.1v-3.73a3.64,3.64,0,0,1-1.877-2.955c-0.091-2.052,1.08-3.183,2.88-3.853H160.8Zm-18.628,35.2v-6.448h6.843v6.376h7.578v-6.371h6.851v6.375h7.5V260.78h6.923V267.1c0.978,0.234,1.889.045,2.78,0.212a6.365,6.365,0,0,1-.78,12.65c-0.562.031-1.128,0.013-1.692,0.013q-18.717,0-37.435,0a6.385,6.385,0,1,1-.415-12.761C140.883,267.192,141.446,267.206,142.17,267.206Zm17.773,10.436h10.818c2.947,0,5.9.021,8.842-.011a3.944,3.944,0,0,0,3.677-2.319,3.722,3.722,0,0,0-.4-4.118,4.325,4.325,0,0,0-3.787-1.669q-15.613.02-31.228,0.013c-2.445,0-4.891-.029-7.337,0a3.976,3.976,0,0,0-3.731,2.241,3.769,3.769,0,0,0,.366,4.2,4.068,4.068,0,0,0,3.5,1.658Q150.3,277.631,159.943,277.642Zm20.279-3.871a1.881,1.881,0,0,1-3.761-.041A1.881,1.881,0,0,1,180.222,273.771ZM160.2,272.03a1.676,1.676,0,0,1,1.716,1.665,1.957,1.957,0,0,1-1.878,1.932,1.918,1.918,0,0,1-1.894-1.9C158.151,272.641,158.869,272.047,160.2,272.03Zm-18.5,3.6a1.92,1.92,0,0,1-1.879-1.923,1.888,1.888,0,0,1,1.869-1.827,1.865,1.865,0,0,1,1.874,1.815A1.906,1.906,0,0,1,141.7,275.632Zm10.627-3.109c0.577,1.277.432,2.153-.362,2.724a1.83,1.83,0,0,1-2.339-.093,1.857,1.857,0,0,1-.387-2.37,3.3,3.3,0,0,1,1.623-.857C151.574,271.568,151.659,272.744,152.323,272.523Zm18.709,1.267a1.855,1.855,0,1,1-3.709-.091A1.855,1.855,0,0,1,171.032,273.79Z"
        transform="translate(-134 -232)"/>
</svg>
