<svg id="Logo" xmlns="http://www.w3.org/2000/svg" width="161.969" height="135" viewBox="0 0 161.969 135">
  <metadata><?xpacket begin="﻿" id="W5M0MpCehiHzreSzNTczkc9d"?>
    <x:xmpmeta xmlns:x="adobe:ns:meta/" x:xmptk="Adobe XMP Core 5.6-c142 79.160924, 2017/07/13-01:06:39        ">
      <rdf:RDF xmlns:rdf="http://www.w3.org/1999/02/22-rdf-syntax-ns#">
        <rdf:Description rdf:about=""/>
      </rdf:RDF>
    </x:xmpmeta>


    <?xpacket end="w"?>
  </metadata>
  <defs>
    <style>
      .cls-1 {
      fill: #c3996b;
      }

      .cls-1, .cls-2 {
      fill-rule: evenodd;
      }

      .cls-2 {
      fill: #f0f1f2;
      }
    </style>
  </defs>
  <path id="M" class="cls-1"
        d="M633.254,0H614.738L602,135h19.132L633.562,3.266Zm0.616,0-0.308,3.264L645.993,135h19.131L652.385,0H633.87Zm63.261,0H678.614L665.875,135h19.132L697.438,3.257Zm0.614,0-0.307,3.255L709.87,135H729L716.263,0H697.745Z"
        transform="translate(-602)"/>
  <path id="_2" data-name="2" class="cls-2"
        d="M695.975,135V118.373q17.258-18.684,28.362-31.91t13.581-17.578A21,21,0,0,0,740.4,58.354q0-6.176-3.675-9.66t-12.064-3.484c-5.592,0-15.074,2.743-22.989,6.684L700.13,34.124A65.1,65.1,0,0,1,728.97,27q14.3,0,22.769,8.235t8.468,21.854a34.115,34.115,0,0,1-3.515,15.441,112.72,112.72,0,0,1-10.944,16.865q-7.431,9.821-23.249,27.239h41.224L763.962,135H695.975Z"
        transform="translate(-602)"/>
</svg>
