<svg id="Слой_1" data-name="Слой 1" xmlns="http://www.w3.org/2000/svg" viewBox="0 0 32 32">
  <defs>
    <style>.cls-1{fill:#fff;}</style>
  </defs>
  <title>machines</title>
  <path class="cls-1" d="M15.05,28.6H6.79a.78.78,0,0,1-.21-.8q1.36-7.7,2.72-15.4c0-.13.06-.27.11-.49a4.44,4.44,0,0,0,2.91,0C12.82,12.88,15.31,28.06,15.05,28.6Z"/>
  <path class="cls-1"
        d="M14.38,10.59a4.94,4.94,0,0,0,1.11-4,31,31,0,0,1,3.42.6c2.14.38,4.28.8,6.42,1.22a2.8,2.8,0,0,1,2.32,2.67,2.83,2.83,0,0,1-2.15,2.88,2,2,0,0,1-1.17,0l-9.59-3.1C14.63,10.82,14.47,10.82,14.38,10.59ZM24.8,9.83a1.4,1.4,0,0,0-1.35,1.34,1.38,1.38,0,0,0,1.38,1.36,1.36,1.36,0,0,0,1.34-1.33A1.37,1.37,0,0,0,24.8,9.83Z"/>
  <path class="cls-1" d="M10.91,3.4A4.05,4.05,0,0,1,15,7.51a4.11,4.11,0,1,1-4.1-4.11Zm2.48,4.11a2.48,2.48,0,1,0-5,0,2.48,2.48,0,0,0,5,0Z"/>
  <path class="cls-1"
        d="M22.77,14c.55.15,1.13.36,1.74.47a3.58,3.58,0,0,0,2-.34c-.34.92-.59,1.75-1,2.53a2.21,2.21,0,0,0,.37,2.84c.39.39.62.93,1,1.32.87.86.66,1.78.32,2.74A2.38,2.38,0,0,1,26,23.39c.43-1.84-1.11-2.7-1.88-3.91-.23-.36-.71-.31-1.07,0-.75.54-1.49,1.11-2.24,1.66-.49.36-.25,1-.62,1.47l-1.12-.17c0-1-.05-2,1-2.55a24.42,24.42,0,0,0,2.09-1.5,1.28,1.28,0,0,0,.59-1.18C22.75,16.11,22.77,15,22.77,14Z"/>
  <path class="cls-1" d="M6.86,5a6.29,6.29,0,0,0-.73,3c-.65-.3-1.47-.22-1.69-1a2,2,0,0,1,.47-2C5.46,4.51,6.15,4.86,6.86,5Z"/>
</svg>
