<svg xmlns="http://www.w3.org/2000/svg" width="41" height="44" viewBox="0 0 41 44">
  <metadata><?xpacket begin="﻿" id="W5M0MpCehiHzreSzNTczkc9d"?>
    <x:xmpmeta xmlns:x="adobe:ns:meta/" x:xmptk="Adobe XMP Core 5.6-c142 79.160924, 2017/07/13-01:06:39        ">
      <rdf:RDF xmlns:rdf="http://www.w3.org/1999/02/22-rdf-syntax-ns#">
        <rdf:Description rdf:about=""/>
      </rdf:RDF>
    </x:xmpmeta>


    <?xpacket end="w"?>
  </metadata>
  <defs>
    <style>
      .cls-1 {
      fill: #bbcad2;
      fill-rule: evenodd;
      }
    </style>
  </defs>
  <path id="icon" class="cls-1"
        d="M159.848,276.987H145.315a1.347,1.347,0,0,1-.367-1.4q2.383-13.442,4.779-26.881c0.041-.234.107-0.463,0.2-0.861a7.853,7.853,0,0,0,5.114,0C155.917,249.55,160.306,276.05,159.848,276.987Zm-1.175-31.436a8.579,8.579,0,0,0,1.951-6.994,55.223,55.223,0,0,1,6.022,1.04c3.769,0.661,7.526,1.4,11.281,2.136a4.949,4.949,0,0,1,.3,9.683,3.6,3.6,0,0,1-2.052.027q-8.434-2.691-16.857-5.415A0.732,0.732,0,0,1,158.673,245.551Zm18.309-1.319a2.448,2.448,0,0,0-2.368,2.334,2.419,2.419,0,0,0,2.433,2.379,2.374,2.374,0,0,0,2.357-2.324A2.4,2.4,0,0,0,176.982,244.232Zm-24.42-11.224a7.1,7.1,0,0,1,7.209,7.18A7.223,7.223,0,1,1,152.562,233.008Zm4.362,7.179a4.365,4.365,0,1,0-8.729-.016A4.365,4.365,0,0,0,156.924,240.187Zm16.492,11.248c0.962,0.264,2,.621,3.06.82a6.338,6.338,0,0,0,3.463-.587c-0.606,1.6-1.041,3.055-1.694,4.406-0.891,1.841-.9,3.434.655,4.951,0.689,0.674,1.1,1.631,1.786,2.305,1.527,1.493,1.156,3.1.557,4.784a4.215,4.215,0,0,1-2.124-.217c0.754-3.217-1.946-4.7-3.314-6.824a1.294,1.294,0,0,0-1.887-.08c-1.322.95-2.617,1.935-3.934,2.892-0.864.629-.447,1.78-1.094,2.562l-1.976-.3c0.081-1.745-.1-3.406,1.8-4.441a42.826,42.826,0,0,0,3.672-2.622,2.235,2.235,0,0,0,1.043-2.052C173.389,255.187,173.416,253.338,173.416,251.435Zm-27.974-15.671a10.888,10.888,0,0,0-1.283,5.3c-1.143-.524-2.587-0.377-2.981-1.7a3.4,3.4,0,0,1,.827-3.489C142.987,234.952,144.2,235.555,145.442,235.764Z"
        transform="translate(-141 -233)"/>
</svg>
