<svg id="Слой_1" data-name="Слой 1" xmlns="http://www.w3.org/2000/svg" viewBox="0 0 32 32">
  <defs>
    <style>.cls-1{fill:#fff;}</style>
  </defs>
  <title>part</title>
  <path class="cls-1"
        d="M23.52,25.47l-1.62.62v1.67H19V26.09l-1.63-.62L16.4,26.7l-2.16-2.24,1.18-.85-.72-1.73H13.12V19c.51-.18,1,0,1.58-.12l.69-1.6-1.33-.88,2.25-2.18,1.14,1.08L19,14.78V13.11h2.92v1.59a7.23,7.23,0,0,0,1.54.62l1.14-1.09,2.08,2.17-1.17.9.69,1.63h1.59v2.88c-.5.17-1.06,0-1.59.11l-.67,1.58,1.24.94-2.27,2.2Zm-.11-5a3,3,0,1,0-3,2.94A3,3,0,0,0,23.4,20.46Z"/>
  <path class="cls-1"
        d="M8,20.34,5.8,18.26l1.09-1.14a8.12,8.12,0,0,1-1-2.61H4.24V11.67c.5-.18,1,0,1.59-.13A9.23,9.23,0,0,1,6.95,8.89L5.67,8,7.88,5.82,9,6.89a4.57,4.57,0,0,1,2.51-1c.19-.55,0-1.09.14-1.63h2.86v1.6a4.45,4.45,0,0,1,2.58,1.08l1.17-1.12,2,2.12L19.24,9a8.66,8.66,0,0,1,1,2.55,20.76,20.76,0,0,0-2.8.55c-1.32-2.74-2.87-3.76-5.15-3.41a4.47,4.47,0,0,0-3.64,3.69c-.32,2.29.71,3.84,3.41,5.08a19,19,0,0,0-.53,2.79,8.25,8.25,0,0,1-2.67-1.06Z"/>
  <path class="cls-1" d="M14.52,13.05a1.46,1.46,0,1,1-1.45-1.46A1.42,1.42,0,0,1,14.52,13.05Z"/>
</svg>
