<svg xmlns="http://www.w3.org/2000/svg" width="44.938" height="52.75" viewBox="0 0 44.938 52.75">
  <metadata><?xpacket begin="﻿" id="W5M0MpCehiHzreSzNTczkc9d"?>
    <x:xmpmeta xmlns:x="adobe:ns:meta/" x:xmptk="Adobe XMP Core 5.6-c142 79.160924, 2017/07/13-01:06:39        ">
      <rdf:RDF xmlns:rdf="http://www.w3.org/1999/02/22-rdf-syntax-ns#">
        <rdf:Description rdf:about=""/>
      </rdf:RDF>
    </x:xmpmeta>


    <?xpacket end="w"?>
  </metadata>
  <defs>
    <style>
      .cls-1 {
      fill: #bbcad2;
      fill-rule: evenodd;
      }
    </style>
  </defs>
  <path id="Icon" class="cls-1"
        d="M178.569,275.138h4.31a8.886,8.886,0,0,1,.035,1.84H138.1a6.848,6.848,0,0,1-.037-1.808h3.958V257.838h3.234c0.4-5.863.8-11.63,1.2-17.462h4.557q0.59,8.673,1.18,17.346a2.863,2.863,0,0,0,1.242.062c0.271-4.932.539-9.816,0.81-14.737h2.72c0.269,4.9.536,9.784,0.8,14.673a3.952,3.952,0,0,0,1.327.1q5.562,0.009,11.123-.006a1.929,1.929,0,0,1,1.185.383c2.11,1.486,4.235,2.949,6.354,4.422,0.263,0.184.519,0.378,0.816,0.6v11.92Zm-2.663-4.836H169.97a7.885,7.885,0,0,0,0,1.612h5.953A5.8,5.8,0,0,0,175.906,270.3Zm-25.312,1.615h5.954a5.658,5.658,0,0,0-.043-1.613H150.56A6.814,6.814,0,0,0,150.594,271.917Zm15.617-1.61h-5.948a4.909,4.909,0,0,0,.04,1.621h5.9A7.576,7.576,0,0,0,166.211,270.307Zm-15.635-4.449h5.975a5.509,5.509,0,0,0-.057-1.606h-5.918v1.606Zm25.39,0.039a6.719,6.719,0,0,0-.093-1.648h-5.938a8.106,8.106,0,0,0,.075,1.648h5.956Zm-19.419,3a5.628,5.628,0,0,0-.049-1.624h-5.9a5.2,5.2,0,0,0,0,1.624h5.956Zm9.664-4.662h-5.96a5,5,0,0,0,.051,1.629h5.909v-1.629Zm-0.013,3.01h-5.927a5.2,5.2,0,0,0,.019,1.643h5.933A7.936,7.936,0,0,0,166.2,267.246Zm3.757,1.652h5.987a5.06,5.06,0,0,0-.069-1.625h-5.918V268.9ZM157.2,233.3c0.062-.439.116-0.821,0.169-1.193-1.027-.521-1.327-1.11-0.925-1.778,0.386-.641,1.072-0.669,1.917-0.051,1.2-1.124,2.552-1.915,4.278-1.411a4.191,4.191,0,0,1,2.859,3.445c0.184-.62.109-1-0.5-2.532a1.011,1.011,0,0,1,.5-0.381c0.186-.106.376-0.2,0.551-0.3a5.667,5.667,0,0,1,6.094-4.881,5.585,5.585,0,0,1,4.855,4.515c0.417,2.3-.685,4.831-2.468,5.671-0.7-1.582-.9-1.84-1.828-2.343,1.323,2.791.935,5.2-1.612,6.905-2.29,1.536-4.5,1.107-7.2-1.131a4.841,4.841,0,0,1-2.62.353,4,4,0,0,0-1.028-2.236c0.2,1.173.774,2.357-.546,3.074a2.72,2.72,0,0,1-3.389-.565,3.463,3.463,0,0,1-1.8-.277,1.579,1.579,0,0,1-1.934.63,1.437,1.437,0,0,1-.923-1.434,1.537,1.537,0,0,1,1.4-1.565C153.205,233.845,154.787,232.413,157.2,233.3Zm10.832,12.887a2.2,2.2,0,0,1-2.153-2.14,2.146,2.146,0,1,1,4.291-.08A2.2,2.2,0,0,1,168.027,246.189Zm-15.8-12.468a1.464,1.464,0,0,1-1.449,1.5,1.435,1.435,0,0,1-1.421-1.456,1.391,1.391,0,0,1,1.409-1.45A1.415,1.415,0,0,1,152.225,233.721Zm11.5,7.738a1.119,1.119,0,0,1-1.069-1.085,1.191,1.191,0,0,1,1.13-1.114,1.147,1.147,0,0,1,1.056,1.108A1.082,1.082,0,0,1,163.729,241.459Z"
        transform="translate(-138.031 -224.219)"/>
</svg>
