<svg id="Слой_1" data-name="Слой 1" xmlns="http://www.w3.org/2000/svg" viewBox="0 0 32 32">
  <defs>
    <style>.cls-1{fill:#fff;}</style>
  </defs>
  <title>plant</title>
  <path class="cls-1"
        d="M26.52,30.11H29a5,5,0,0,1,0,1.06H3a3.91,3.91,0,0,1,0-1h2.3v-10H7.14l.7-10h2.65l.69,10a1.69,1.69,0,0,0,.72,0l.47-8.47H14l.47,8.43a2.35,2.35,0,0,0,.77.06h6.47a1.13,1.13,0,0,1,.69.22c1.23.85,2.46,1.69,3.7,2.54l.47.34ZM25,27.33H21.52a4.48,4.48,0,0,0,0,.93H25A3.29,3.29,0,0,0,25,27.33Zm-14.72.93h3.46a3.21,3.21,0,0,0,0-.93H10.23A3.87,3.87,0,0,0,10.25,28.25Zm9.08-.92H15.87a2.78,2.78,0,0,0,0,.93h3.43A4.28,4.28,0,0,0,19.33,27.33Zm-9.09-2.56h3.47a3.11,3.11,0,0,0,0-.92H10.24ZM25,24.8a3.84,3.84,0,0,0-.05-.95H21.5a4.61,4.61,0,0,0,0,.95ZM13.71,26.52a3.21,3.21,0,0,0,0-.93H10.25a3,3,0,0,0,0,.93Zm5.62-2.68H15.87a2.84,2.84,0,0,0,0,.94h3.44Zm0,1.73H15.88a3,3,0,0,0,0,.94h3.45A4.54,4.54,0,0,0,19.32,25.57Zm2.18.95H25a2.87,2.87,0,0,0,0-.93H21.51Z"/>
  <path class="cls-1"
        d="M14.09,6.07l.1-.69c-.6-.3-.77-.64-.54-1s.62-.38,1.11,0a2.5,2.5,0,0,1,2.49-.81,2.42,2.42,0,0,1,1.66,2C19,5.14,19,4.93,18.62,4c.06-.12.18-.16.29-.22l.32-.17A3.29,3.29,0,0,1,22.78.85,3.23,3.23,0,0,1,25.6,3.45,3.08,3.08,0,0,1,24.16,6.7c-.41-.91-.52-1.06-1.06-1.35.77,1.6.54,3-.94,4S19.55,10,18,8.68a2.85,2.85,0,0,1-1.52.2,2.29,2.29,0,0,0-.6-1.28c.12.67.45,1.35-.32,1.77a1.6,1.6,0,0,1-2-.32,2,2,0,0,1-1-.16.92.92,0,0,1-1.12.36.82.82,0,0,1-.54-.82.89.89,0,0,1,.81-.9A1.66,1.66,0,0,1,14.09,6.07Z"/>
  <path class="cls-1" d="M20.39,13.47a1.27,1.27,0,0,1-1.25-1.23,1.25,1.25,0,0,1,2.5,0A1.27,1.27,0,0,1,20.39,13.47Z"/>
  <path class="cls-1" d="M11.2,6.31a.85.85,0,0,1-.84.86.83.83,0,0,1-.83-.84.8.8,0,0,1,.82-.83A.82.82,0,0,1,11.2,6.31Z"/>
  <path class="cls-1" d="M17.89,10.76a.65.65,0,0,1-.62-.62.69.69,0,0,1,.66-.64.66.66,0,0,1,.61.64A.63.63,0,0,1,17.89,10.76Z"/>
</svg>
