<svg id="Слой_1" data-name="Слой 1" xmlns="http://www.w3.org/2000/svg" viewBox="0 0 32 32">
  <defs>
    <style>.cls-1{fill:#fff;}</style>
  </defs>
  <title>users</title>
  <path class="cls-1"
        d="M6,25.46a5,5,0,0,1,2.85-5.32A26.16,26.16,0,0,1,12,19a9.82,9.82,0,0,0,1.11-.43,1.12,1.12,0,0,0,.47-1.74A10.36,10.36,0,0,1,12,10.24c.22-2.09,1.1-2.95,3.19-3.28a5.25,5.25,0,0,1,2.63.26,3.17,3.17,0,0,1,2.09,3,10.79,10.79,0,0,1-1.53,6.38,1.24,1.24,0,0,0,.56,1.91c1.16.48,2.37.87,3.54,1.33a6,6,0,0,1,2.37,1.45A5.67,5.67,0,0,1,26,25.46Z"/>
  <path class="cls-1"
        d="M20.42,6.83a4.18,4.18,0,0,1,3.33.12A2.43,2.43,0,0,1,25,9.18a8.36,8.36,0,0,1-1.36,5,1.23,1.23,0,0,0,1,1.28,21.15,21.15,0,0,1,3,1.15,3.5,3.5,0,0,1,1.85,3.82H26.53a.59.59,0,0,1-.31-.14,16.67,16.67,0,0,0-5-2.26,2.29,2.29,0,0,1-1.09-.53C21.71,14,23.19,10.52,20.42,6.83Z"/>
  <path class="cls-1"
        d="M11.86,17.55a15,15,0,0,1-2.31.85,12.57,12.57,0,0,0-3.75,1.86.7.7,0,0,1-.45.17H2.56a3.58,3.58,0,0,1,1.8-3.82A26.07,26.07,0,0,1,7.5,15.4c.67-.25.72-.32.88-1.1A8.4,8.4,0,0,1,6.95,9.95,7.18,7.18,0,0,1,7,8.9,2.37,2.37,0,0,1,9.23,6.61a3.76,3.76,0,0,1,2.22.24c-2.58,3.33-1.52,6.62,0,9.91C11.53,17,11.68,17.24,11.86,17.55Z"/>
</svg>
