<svg xmlns="http://www.w3.org/2000/svg" width="203" height="19" viewBox="0 0 203 19">
  <metadata><?xpacket begin="﻿" id="W5M0MpCehiHzreSzNTczkc9d"?>
    <x:xmpmeta xmlns:x="adobe:ns:meta/" x:xmptk="Adobe XMP Core 5.6-c142 79.160924, 2017/07/13-01:06:39        ">
      <rdf:RDF xmlns:rdf="http://www.w3.org/1999/02/22-rdf-syntax-ns#">
        <rdf:Description rdf:about=""/>
      </rdf:RDF>
    </x:xmpmeta>


    <?xpacket end="w"?>
  </metadata>
  <defs>
    <style>
      .cls-1 {
      fill: #518bb9;
      fill-rule: evenodd;
      }
    </style>
  </defs>
  <path id="waveform" class="cls-1"
        d="M847.5,453.517H845V460H847.5v-6.478Zm5.012-3.112H850.01V460h2.506v-9.59Zm5.012-8.579h-2.506V460h2.506V441.826Zm5.012,2.288h-2.506V460h2.506V444.114Zm5.012,3.114h-2.506V460h2.506V447.228Zm5.012,3.177h-2.506V460h2.506v-9.59Zm5.012-1.588H875.07V460h2.506V448.817Zm5.012-3.115h-2.506V460h2.506V445.7Zm5.013-1.588h-2.507V460H887.6V444.114Zm5.011,4.7h-2.506V460h2.506V448.817Zm5.012,4.448h-2.506V460h2.506v-6.73Zm5.012,1.935H900.13V460h2.506v-4.8Zm5.012,3.466h-2.506V460h2.506v-1.329Zm5.013-1.069h-2.507V460h2.507v-2.4Zm5.012-9.606h-2.506v12h2.506v-12Zm5.012-2.289h-2.506V460h2.506V445.7Zm5.011,6.352h-2.5V460h2.5v-7.941Zm5.013-2.348H930.2V460h2.506V449.706Zm5.012-6.354h-2.506V460h2.506V443.352ZM942.733,441h-2.506v19h2.506V441Zm5.012,2.352h-2.506V460h2.506V443.352Zm5.012,6.672h-2.506V460h2.506v-9.971Zm5.012,1.017h-2.506V460h2.506v-8.954Zm5.012-1.017h-2.506V460h2.506v-9.971Zm5.012-.572h-2.506V460h2.506V449.452Zm5.012-2.415H970.3V460h2.506V447.037Zm5.012,1.335h-2.506V460h2.506V448.372Zm5.012-3.813h-2.506V460h2.506V444.559Zm5.012-1.207h-2.506V460h2.506V443.352Zm5.012,5.719h-2.506V460h2.506V449.071Zm5.012-1.716h-2.506V460h2.506v-12.64Zm5.015,3.686h-2.51V460h2.51v-8.954Zm5.01,4.893h-2.51V460h2.51v-4.061Zm5.01,2.154h-2.51V460h2.51v-1.907Zm5.01,0.954h-2.5V460h2.5v-0.953Zm5.01-.954h-2.5V460h2.5v-1.907Zm5.02-4.95h-2.51V460h2.51v-6.857Zm5.01,2.8h-2.51V460h2.51v-4.061Zm5.01,1.334h-2.51V460h2.51v-2.727Zm5.02,1.353h-2.5v1.363h2.5v-1.363Zm5.01-.543h-2.5v1.906h2.5v-1.906Z"
        transform="translate(-845 -441)"/>
</svg>
